<svg width="26" height="25" viewBox="0 0 26 25" fill="none" xmlns="http://www.w3.org/2000/svg">
<path d="M13.2112 24.7797C20.0539 24.7797 25.601 19.2326 25.601 12.3899C25.601 5.54714 20.0539 0 13.2112 0C6.36842 0 0.821289 5.54714 0.821289 12.3899C0.821289 19.2326 6.36842 24.7797 13.2112 24.7797Z" fill="#0F1619"/>
<path d="M20.7988 8.9044C20.2679 9.13984 19.6967 9.29908 19.0977 9.3702C19.7093 9.00379 20.1786 8.42403 20.4002 7.73207C19.8279 8.07153 19.1938 8.31779 18.5195 8.45053C17.9793 7.87519 17.2096 7.51562 16.3573 7.51562C14.722 7.51562 13.3958 8.8419 13.3958 10.4772C13.3958 10.7093 13.4221 10.9352 13.4729 11.1521C11.0116 11.0286 8.82924 9.84969 7.36847 8.0574C7.11359 8.4947 6.96738 9.00379 6.96738 9.54644C6.96738 10.5737 7.4906 11.4805 8.28482 12.0115C7.79959 11.9962 7.34263 11.8631 6.94353 11.6407C6.94331 11.6532 6.94331 11.6658 6.94331 11.6782C6.94331 13.1131 7.96457 14.31 9.31911 14.5819C9.07087 14.6499 8.8087 14.6859 8.53903 14.6859C8.34777 14.6859 8.16246 14.6676 7.9818 14.6331C8.35859 15.8094 9.45207 16.6657 10.7483 16.6898C9.73455 17.4842 8.45775 17.9575 7.06986 17.9575C6.83133 17.9575 6.59501 17.9436 6.36377 17.916C7.6737 18.7566 9.23077 19.2467 10.9031 19.2467C16.3505 19.2467 19.3294 14.734 19.3294 10.8202C19.3294 10.6918 19.3266 10.564 19.3208 10.4372C19.8999 10.0197 20.4019 9.4983 20.7988 8.9044Z" fill="#979797"/>
</svg>
