<svg width="26" height="25" viewBox="0 0 26 25" fill="none" xmlns="http://www.w3.org/2000/svg">
<path d="M25.0641 12.6102C25.0641 5.7674 19.517 0.220215 12.6742 0.220215C5.83136 0.220215 0.28418 5.7674 0.28418 12.6102C0.28418 19.453 5.83136 25.0002 12.6742 25.0002C19.517 25.0002 25.0641 19.453 25.0641 12.6102Z" fill="#0F1619"/>
<path d="M14.4365 12.4205C14.4365 12.8066 14.322 13.184 14.1075 13.505C13.893 13.826 13.5882 14.0762 13.2315 14.2239C12.8748 14.3717 12.4823 14.4103 12.1036 14.335C11.725 14.2597 11.3771 14.0738 11.1041 13.8008C10.8311 13.5278 10.6452 13.18 10.5699 12.8013C10.4946 12.4226 10.5332 12.0302 10.681 11.6735C10.8287 11.3168 11.0789 11.0119 11.3999 10.7974C11.721 10.5829 12.0984 10.4684 12.4844 10.4684C13.0017 10.47 13.4972 10.6762 13.863 11.0419C14.2287 11.4077 14.4349 11.9033 14.4365 12.4205ZM18.5846 9.73641V15.1046C18.5846 16.0106 18.2247 16.8795 17.5841 17.5201C16.9434 18.1607 16.0745 18.5207 15.1685 18.5207H9.80037C8.89437 18.5207 8.02547 18.1607 7.38483 17.5201C6.74419 16.8795 6.38428 16.0106 6.38428 15.1046V9.73641C6.38428 8.8304 6.74419 7.96151 7.38483 7.32086C8.02547 6.68022 8.89437 6.32031 9.80037 6.32031H15.1685C16.0745 6.32031 16.9434 6.68022 17.5841 7.32086C18.2247 7.96151 18.5846 8.8304 18.5846 9.73641ZM15.4125 12.4205C15.4125 11.8414 15.2408 11.2752 14.9191 10.7937C14.5973 10.3122 14.14 9.93691 13.605 9.71529C13.0699 9.49367 12.4812 9.43568 11.9132 9.54866C11.3452 9.66164 10.8235 9.94052 10.414 10.35C10.0045 10.7595 9.72561 11.2812 9.61263 11.8492C9.49965 12.4172 9.55763 13.006 9.77925 13.541C10.0009 14.076 10.3762 14.5334 10.8577 14.8551C11.3392 15.1768 11.9053 15.3486 12.4844 15.3486C13.261 15.3486 14.0058 15.0401 14.5549 14.4909C15.104 13.9418 15.4125 13.1971 15.4125 12.4205ZM16.3886 9.24839C16.3886 9.10361 16.3456 8.96209 16.2652 8.84171C16.1848 8.72133 16.0704 8.6275 15.9367 8.5721C15.8029 8.51669 15.6557 8.50219 15.5137 8.53044C15.3717 8.55868 15.2413 8.6284 15.1389 8.73078C15.0365 8.83315 14.9668 8.96359 14.9386 9.10558C14.9103 9.24758 14.9248 9.39477 14.9802 9.52853C15.0356 9.66229 15.1295 9.77661 15.2498 9.85705C15.3702 9.93748 15.5118 9.98041 15.6565 9.98041C15.8507 9.98041 16.0369 9.90329 16.1742 9.76601C16.3114 9.62873 16.3886 9.44254 16.3886 9.24839Z" fill="#979797"/>
</svg>
